<svg xmlns="http://www.w3.org/2000/svg" viewBox="0 0 128 128" role="img" aria-labelledby="title desc">
  <title id="title">Compass</title>
  <desc id="desc">A glowing compass monster icon.</desc>
  <defs>
    <radialGradient id="face" cx="50%" cy="45%" r="58%">
      <stop offset="0" stop-color="#f8fbff"/>
      <stop offset="0.58" stop-color="#dfe9f4"/>
      <stop offset="1" stop-color="#8bb1c9"/>
    </radialGradient>
    <linearGradient id="needleRed" x1="34" y1="21" x2="84" y2="96" gradientUnits="userSpaceOnUse">
      <stop offset="0" stop-color="#ff6d77"/>
      <stop offset="1" stop-color="#b7132d"/>
    </linearGradient>
    <linearGradient id="needleBlue" x1="94" y1="31" x2="46" y2="104" gradientUnits="userSpaceOnUse">
      <stop offset="0" stop-color="#71ddff"/>
      <stop offset="1" stop-color="#1475a8"/>
    </linearGradient>
    <filter id="glow" x="-25%" y="-25%" width="150%" height="150%">
      <feGaussianBlur stdDeviation="3" result="blur"/>
      <feMerge>
        <feMergeNode in="blur"/>
        <feMergeNode in="SourceGraphic"/>
      </feMerge>
    </filter>
  </defs>
  <circle cx="64" cy="64" r="56" fill="#102638"/>
  <circle cx="64" cy="64" r="50" fill="url(#face)" stroke="#f3fdff" stroke-width="4"/>
  <circle cx="64" cy="64" r="40" fill="none" stroke="#315a70" stroke-width="3" opacity="0.72"/>
  <path d="M64 15v12M64 101v12M15 64h12M101 64h12" stroke="#315a70" stroke-width="5" stroke-linecap="round"/>
  <path d="M32 32l8 8M88 88l8 8M96 32l-8 8M40 88l-8 8" stroke="#5e879b" stroke-width="4" stroke-linecap="round" opacity="0.78"/>
  <path d="M64 28l14 38-14-6-14 6z" fill="url(#needleRed)" stroke="#7c1624" stroke-linejoin="round" stroke-width="2" filter="url(#glow)"/>
  <path d="M64 100L50 62l14 6 14-6z" fill="url(#needleBlue)" stroke="#0c577d" stroke-linejoin="round" stroke-width="2"/>
  <circle cx="64" cy="64" r="9" fill="#fff7c5" stroke="#674d18" stroke-width="3"/>
  <circle cx="64" cy="64" r="3" fill="#674d18"/>
</svg>
