<svg xmlns="http://www.w3.org/2000/svg" viewBox="0 0 320 448" role="img">
  <title>blackout_well</title>
  <defs>
    <linearGradient id="g1" x1="0" y1="0" x2="1" y2="1">
      <stop offset="0" stop-color="#090d18"/>
      <stop offset="0.52" stop-color="#1f2a44"/>
      <stop offset="1" stop-color="#070912"/>
    </linearGradient>
    <pattern id="p1" width="21" height="21" patternUnits="userSpaceOnUse">
      <path d="M0 21L21 0" stroke="#9ad0ec" stroke-width="1.4" opacity="0.24"/>
      <circle cx="9" cy="9" r="1.7" fill="#f7a072" opacity="0.42"/>
    </pattern>
    <filter id="f1" x="-30%" y="-30%" width="160%" height="160%">
      <feGaussianBlur stdDeviation="7" result="blur"/>
      <feColorMatrix in="blur" type="matrix" values="0 0 0 0 0.4 0 0 0 0 0.95 0 0 0 0 0.9 0 0 0 0.8 0"/>
      <feBlend in="SourceGraphic"/>
    </filter>
  </defs>
  <rect width="320" height="448" rx="22" fill="url(#g1)"/>
  <rect x="12" y="12" width="296" height="424" rx="20" fill="#07111d" opacity="0.72" stroke="#9ad0ec" stroke-width="3"/>
  <rect x="28" y="30" width="264" height="286" rx="18" fill="url(#p1)" opacity="0.88"/>
  <path d="M38 344c42-24 76-24 118 0s82 24 126 0" fill="none" stroke="#f7a072" stroke-width="6" opacity="0.72" stroke-linecap="round"/>
  <path d="M52 366c32-14 64-14 96 0s72 14 118 0" fill="none" stroke="#9ad0ec" stroke-width="4" opacity="0.72" stroke-linecap="round"/>
  <g filter="url(#f1)">
  <g transform="rotate(221 160 204)" opacity="0.90">
    <path d="M96 86h92l48 48v188H96z" fill="#1f2a44" stroke="#9ad0ec" stroke-width="9"/>
    <path d="M188 86v48h48" fill="none" stroke="#f7a072" stroke-width="9"/>
    <path d="M124 178h72M124 212h92M124 246h62" stroke="#f7a072" stroke-width="11" stroke-linecap="round"/>
    <circle cx="226" cy="286" r="34" fill="#9ad0ec" opacity="0.85"/>
  </g>
  </g>
  <rect x="50" y="382" width="220" height="38" rx="12" fill="#070b13" opacity="0.74" stroke="#9ad0ec" stroke-width="2"/>
  <text x="160" y="407" fill="#f6fbff" font-family="Arial, sans-serif" font-size="15" font-weight="700" text-anchor="middle">blackout_well</text>
</svg>
