<svg xmlns="http://www.w3.org/2000/svg" viewBox="0 0 320 448" role="img">
  <title>cover_feint</title>
  <defs>
    <linearGradient id="g6" x1="0" y1="0" x2="1" y2="1">
      <stop offset="0" stop-color="#120914"/>
      <stop offset="0.52" stop-color="#3a1f40"/>
      <stop offset="1" stop-color="#070912"/>
    </linearGradient>
    <pattern id="p6" width="26" height="26" patternUnits="userSpaceOnUse">
      <path d="M0 26L26 0" stroke="#f48a52" stroke-width="1.4" opacity="0.24"/>
      <circle cx="19" cy="20" r="1.7" fill="#8bd66b" opacity="0.42"/>
    </pattern>
    <filter id="f6" x="-30%" y="-30%" width="160%" height="160%">
      <feGaussianBlur stdDeviation="7" result="blur"/>
      <feColorMatrix in="blur" type="matrix" values="0 0 0 0 0.4 0 0 0 0 0.95 0 0 0 0 0.9 0 0 0 0.8 0"/>
      <feBlend in="SourceGraphic"/>
    </filter>
  </defs>
  <rect width="320" height="448" rx="22" fill="url(#g6)"/>
  <rect x="12" y="12" width="296" height="424" rx="20" fill="#07111d" opacity="0.72" stroke="#f48a52" stroke-width="3"/>
  <rect x="28" y="30" width="264" height="286" rx="18" fill="url(#p6)" opacity="0.88"/>
  <path d="M38 344c42-24 76-24 118 0s82 24 126 0" fill="none" stroke="#8bd66b" stroke-width="6" opacity="0.72" stroke-linecap="round"/>
  <path d="M52 366c32-14 64-14 96 0s72 14 118 0" fill="none" stroke="#f48a52" stroke-width="4" opacity="0.72" stroke-linecap="round"/>
  <g filter="url(#f6)">
  <g transform="rotate(46 160 204)" opacity="0.90">
    <polygon points="160,68 258,204 160,340 62,204" fill="#3a1f40" stroke="#f48a52" stroke-width="12"/>
    <polygon points="160,108 224,204 160,300 96,204" fill="#8bd66b" opacity="0.86"/>
    <circle cx="160" cy="204" r="42" fill="#f48a52" opacity="0.9"/>
  </g>
  </g>
  <rect x="50" y="382" width="220" height="38" rx="12" fill="#070b13" opacity="0.74" stroke="#f48a52" stroke-width="2"/>
  <text x="160" y="407" fill="#f6fbff" font-family="Arial, sans-serif" font-size="15" font-weight="700" text-anchor="middle">cover_feint</text>
</svg>
