<svg xmlns="http://www.w3.org/2000/svg" viewBox="0 0 320 448" role="img">
  <title>darkstar_seed</title>
  <defs>
    <linearGradient id="g7" x1="0" y1="0" x2="1" y2="1">
      <stop offset="0" stop-color="#0b1227"/>
      <stop offset="0.52" stop-color="#21375f"/>
      <stop offset="1" stop-color="#070912"/>
    </linearGradient>
    <pattern id="p7" width="33" height="33" patternUnits="userSpaceOnUse">
      <path d="M0 33L33 0" stroke="#7fc8ff" stroke-width="1.4" opacity="0.24"/>
      <circle cx="22" cy="23" r="1.7" fill="#f47ca8" opacity="0.42"/>
    </pattern>
    <filter id="f7" x="-30%" y="-30%" width="160%" height="160%">
      <feGaussianBlur stdDeviation="7" result="blur"/>
      <feColorMatrix in="blur" type="matrix" values="0 0 0 0 0.4 0 0 0 0 0.95 0 0 0 0 0.9 0 0 0 0.8 0"/>
      <feBlend in="SourceGraphic"/>
    </filter>
  </defs>
  <rect width="320" height="448" rx="22" fill="url(#g7)"/>
  <rect x="12" y="12" width="296" height="424" rx="20" fill="#07111d" opacity="0.72" stroke="#7fc8ff" stroke-width="3"/>
  <rect x="28" y="30" width="264" height="286" rx="18" fill="url(#p7)" opacity="0.88"/>
  <path d="M38 344c42-24 76-24 118 0s82 24 126 0" fill="none" stroke="#f47ca8" stroke-width="6" opacity="0.72" stroke-linecap="round"/>
  <path d="M52 366c32-14 64-14 96 0s72 14 118 0" fill="none" stroke="#7fc8ff" stroke-width="4" opacity="0.72" stroke-linecap="round"/>
  <g filter="url(#f7)">
  <g transform="rotate(25 160 204)" opacity="0.87">
    <path d="M96 86h92l48 48v188H96z" fill="#21375f" stroke="#7fc8ff" stroke-width="9"/>
    <path d="M188 86v48h48" fill="none" stroke="#f47ca8" stroke-width="9"/>
    <path d="M124 178h72M124 212h92M124 246h62" stroke="#f47ca8" stroke-width="11" stroke-linecap="round"/>
    <circle cx="226" cy="286" r="34" fill="#7fc8ff" opacity="0.85"/>
  </g>
  </g>
  <rect x="50" y="382" width="220" height="38" rx="12" fill="#070b13" opacity="0.74" stroke="#7fc8ff" stroke-width="2"/>
  <text x="160" y="407" fill="#f6fbff" font-family="Arial, sans-serif" font-size="15" font-weight="700" text-anchor="middle">darkstar_seed</text>
</svg>
