<svg xmlns="http://www.w3.org/2000/svg" viewBox="0 0 320 448" role="img">
  <title>discordance</title>
  <defs>
    <linearGradient id="g11" x1="0" y1="0" x2="1" y2="1">
      <stop offset="0" stop-color="#0b1227"/>
      <stop offset="0.52" stop-color="#21375f"/>
      <stop offset="1" stop-color="#070912"/>
    </linearGradient>
    <pattern id="p11" width="24" height="24" patternUnits="userSpaceOnUse">
      <path d="M0 24L24 0" stroke="#7fc8ff" stroke-width="1.4" opacity="0.24"/>
      <circle cx="10" cy="20" r="1.7" fill="#f47ca8" opacity="0.42"/>
    </pattern>
    <filter id="f11" x="-30%" y="-30%" width="160%" height="160%">
      <feGaussianBlur stdDeviation="7" result="blur"/>
      <feColorMatrix in="blur" type="matrix" values="0 0 0 0 0.4 0 0 0 0 0.95 0 0 0 0 0.9 0 0 0 0.8 0"/>
      <feBlend in="SourceGraphic"/>
    </filter>
  </defs>
  <rect width="320" height="448" rx="22" fill="url(#g11)"/>
  <rect x="12" y="12" width="296" height="424" rx="20" fill="#07111d" opacity="0.72" stroke="#7fc8ff" stroke-width="3"/>
  <rect x="28" y="30" width="264" height="286" rx="18" fill="url(#p11)" opacity="0.88"/>
  <path d="M38 344c42-24 76-24 118 0s82 24 126 0" fill="none" stroke="#f47ca8" stroke-width="6" opacity="0.72" stroke-linecap="round"/>
  <path d="M52 366c32-14 64-14 96 0s72 14 118 0" fill="none" stroke="#7fc8ff" stroke-width="4" opacity="0.72" stroke-linecap="round"/>
  <g filter="url(#f11)">
  <g transform="rotate(55 160 204)" opacity="0.81">
    <path d="M78 246c42-108 122-150 204-98-74 12-94 62-88 146-36-38-75-50-116-48z" fill="#f47ca8" opacity="0.9"/>
    <path d="M92 286c52-76 116-104 176-70-50 10-72 42-76 92-30-24-63-30-100-22z" fill="#7fc8ff"/>
  </g>
  </g>
  <rect x="50" y="382" width="220" height="38" rx="12" fill="#070b13" opacity="0.74" stroke="#7fc8ff" stroke-width="2"/>
  <text x="160" y="407" fill="#f6fbff" font-family="Arial, sans-serif" font-size="15" font-weight="700" text-anchor="middle">discordance</text>
</svg>
