<svg xmlns="http://www.w3.org/2000/svg" viewBox="0 0 320 448" role="img">
  <title>material_device</title>
  <defs>
    <linearGradient id="g25" x1="0" y1="0" x2="1" y2="1">
      <stop offset="0" stop-color="#10070f"/>
      <stop offset="0.52" stop-color="#2b1b32"/>
      <stop offset="1" stop-color="#070912"/>
    </linearGradient>
    <pattern id="p25" width="32" height="32" patternUnits="userSpaceOnUse">
      <path d="M0 32L32 0" stroke="#ef5d75" stroke-width="1.4" opacity="0.24"/>
      <circle cx="12" cy="13" r="1.7" fill="#f2d492" opacity="0.42"/>
    </pattern>
    <filter id="f25" x="-30%" y="-30%" width="160%" height="160%">
      <feGaussianBlur stdDeviation="7" result="blur"/>
      <feColorMatrix in="blur" type="matrix" values="0 0 0 0 0.4 0 0 0 0 0.95 0 0 0 0 0.9 0 0 0 0.8 0"/>
      <feBlend in="SourceGraphic"/>
    </filter>
  </defs>
  <rect width="320" height="448" rx="22" fill="url(#g25)"/>
  <rect x="12" y="12" width="296" height="424" rx="20" fill="#07111d" opacity="0.72" stroke="#ef5d75" stroke-width="3"/>
  <rect x="28" y="30" width="264" height="286" rx="18" fill="url(#p25)" opacity="0.88"/>
  <path d="M38 344c42-24 76-24 118 0s82 24 126 0" fill="none" stroke="#f2d492" stroke-width="6" opacity="0.72" stroke-linecap="round"/>
  <path d="M52 366c32-14 64-14 96 0s72 14 118 0" fill="none" stroke="#ef5d75" stroke-width="4" opacity="0.72" stroke-linecap="round"/>
  <g filter="url(#f25)">
  <g transform="rotate(1 160 204)" opacity="0.93">
    <polygon points="267.6,265.6 160.4,328.0 52.8,266.4 52.4,142.4 159.6,80.0 267.2,141.6" fill="#2b1b32" stroke="#ef5d75" stroke-width="10"/>
    <polygon points="226.0,241.8 160.3,280.0 94.3,242.2 94.0,166.2 159.7,128.0 225.7,165.8" fill="#f2d492" opacity="0.9"/>
  </g>
  </g>
  <rect x="50" y="382" width="220" height="38" rx="12" fill="#070b13" opacity="0.74" stroke="#ef5d75" stroke-width="2"/>
  <text x="160" y="407" fill="#f6fbff" font-family="Arial, sans-serif" font-size="15" font-weight="700" text-anchor="middle">material_device</text>
</svg>
