<svg xmlns="http://www.w3.org/2000/svg" viewBox="0 0 320 448" role="img">
  <title>prism_route</title>
  <defs>
    <linearGradient id="g37" x1="0" y1="0" x2="1" y2="1">
      <stop offset="0" stop-color="#0f1025"/>
      <stop offset="0.52" stop-color="#2b2358"/>
      <stop offset="1" stop-color="#070912"/>
    </linearGradient>
    <pattern id="p37" width="31" height="31" patternUnits="userSpaceOnUse">
      <path d="M0 31L31 0" stroke="#bba2ff" stroke-width="1.4" opacity="0.24"/>
      <circle cx="6" cy="5" r="1.7" fill="#65e0bb" opacity="0.42"/>
    </pattern>
    <filter id="f37" x="-30%" y="-30%" width="160%" height="160%">
      <feGaussianBlur stdDeviation="7" result="blur"/>
      <feColorMatrix in="blur" type="matrix" values="0 0 0 0 0.4 0 0 0 0 0.95 0 0 0 0 0.9 0 0 0 0.8 0"/>
      <feBlend in="SourceGraphic"/>
    </filter>
  </defs>
  <rect width="320" height="448" rx="22" fill="url(#g37)"/>
  <rect x="12" y="12" width="296" height="424" rx="20" fill="#07111d" opacity="0.72" stroke="#bba2ff" stroke-width="3"/>
  <rect x="28" y="30" width="264" height="286" rx="18" fill="url(#p37)" opacity="0.88"/>
  <path d="M38 344c42-24 76-24 118 0s82 24 126 0" fill="none" stroke="#65e0bb" stroke-width="6" opacity="0.72" stroke-linecap="round"/>
  <path d="M52 366c32-14 64-14 96 0s72 14 118 0" fill="none" stroke="#bba2ff" stroke-width="4" opacity="0.72" stroke-linecap="round"/>
  <g filter="url(#f37)">
  <g transform="rotate(220 160 204)" opacity="0.78">
    <path d="M92 82h136c-8 62-35 89-68 122 33 33 60 60 68 122H92c8-62 35-89 68-122-33-33-60-60-68-122z" fill="#2b2358" stroke="#bba2ff" stroke-width="10"/>
    <path d="M124 112h72M124 296h72M160 204l38 80h-76z" fill="#65e0bb" opacity="0.9"/>
  </g>
  </g>
  <rect x="50" y="382" width="220" height="38" rx="12" fill="#070b13" opacity="0.74" stroke="#bba2ff" stroke-width="2"/>
  <text x="160" y="407" fill="#f6fbff" font-family="Arial, sans-serif" font-size="15" font-weight="700" text-anchor="middle">prism_route</text>
</svg>
