<svg xmlns="http://www.w3.org/2000/svg" viewBox="0 0 64 64">
  <rect width="64" height="64" rx="10" fill="#0b1b31"/>
  <path fill="#78d6ff" d="M16 8h27c6 0 11 5 11 11v37H10V14c0-3 3-6 6-6z"/>
  <path fill="#112946" d="M18 14h27c2 0 4 2 4 4v32H15V17c0-2 1-3 3-3z"/>
  <path fill="#5bb7ff" d="M22 18l19 5v26l-19 4z"/>
  <path fill="#9fe6ff" d="M24 21l14 3.5v20L24 47z" opacity="0.9"/>
  <rect x="42" y="18" width="3" height="30" rx="1.5" fill="#1e466e"/>
  <circle cx="35" cy="34" r="3" fill="#0b1b31"/>
</svg>
